<svg width="16" height="16" viewBox="0 0 16 16" fill="none" xmlns="http://www.w3.org/2000/svg">
<path d="M0 4C0 1.79086 1.79086 0 4 0H12C14.2091 0 16 1.79086 16 4V12C16 14.2091 14.2091 16 12 16H4C1.79086 16 0 14.2091 0 12V4Z" fill="#ED165F"/>
<path d="M6.71697 9.25977L5.03409 7.90643C4.61977 7.57323 4.01444 7.63566 3.67684 8.04641C3.32576 8.47356 3.4022 9.10733 3.84479 9.43875L6.99941 11.8011L12.131 6.25538C12.5014 5.85512 12.4663 5.22759 12.0536 4.8711C11.6607 4.53163 11.0694 4.56441 10.7164 4.94525L6.71697 9.25977Z" fill="white"/>
</svg>
