<svg width="27" height="29" viewBox="0 0 27 29" fill="none" xmlns="http://www.w3.org/2000/svg">
<path fill-rule="evenodd" clip-rule="evenodd" d="M13.5 8C14.8807 8 16 6.88071 16 5.5C16 4.11929 14.8807 3 13.5 3C12.1193 3 11 4.11929 11 5.5C11 6.88071 12.1193 8 13.5 8ZM13.5 11C16.5376 11 19 8.53757 19 5.5C19 2.46243 16.5376 0 13.5 0C10.4624 0 8 2.46243 8 5.5C8 8.53757 10.4624 11 13.5 11Z" fill="white"/>
<path fill-rule="evenodd" clip-rule="evenodd" d="M0.76738 18.575L3.23261 15.425L13.5 23.4603L23.7674 15.425L26.2326 18.575L13.5 28.5397L0.76738 18.575Z" fill="white"/>
</svg>
